<?xml version="1.0" encoding="UTF-8"?>
<svg version="1.1" xmlns="http://www.w3.org/2000/svg" width="512" height="512">
<path d="M0 0 C6.71924429 4.77087408 10.83046319 11.36892723 13.2421875 19.20703125 C14.17634028 28.78209728 13.16224984 37.6694422 7.4921875 45.76953125 C9.3795678 47.65691155 12.19067015 47.4774409 14.7253418 47.92260742 C36.89952436 51.8836734 57.85884078 60.58562754 75.4921875 74.76953125 C76.0073291 75.17929199 76.5224707 75.58905273 77.05322266 76.01123047 C95.48715814 90.75947254 95.48715814 90.75947254 99.4921875 98.76953125 C99.84392602 102.56830724 100.01920194 104.91313278 97.9921875 108.20703125 C94.54529369 110.36133988 91.39955227 110.60649504 87.4921875 109.76953125 C84.99527697 108.0355656 83.25482838 105.82039177 81.3671875 103.45703125 C60.21277153 78.97338555 29.4532071 65.40046884 -2.5078125 62.76953125 C-8.0611743 62.54116464 -8.0611743 62.54116464 -13.6171875 62.40625 C-16.5078125 61.76953125 -16.5078125 61.76953125 -18.85546875 59.40234375 C-20.97750922 56.0211256 -21.35492327 54.69704482 -20.5078125 50.76953125 C-16.85859311 45.46658705 -11.89272141 41.09925961 -7.20703125 36.7265625 C-4.73452905 33.87892203 -3.56186318 31.27265496 -3.42578125 27.48828125 C-3.97699053 22.95079036 -4.51490275 19.4037788 -7.5078125 15.76953125 C-12.05882452 12.32552215 -16.12948466 11.49510881 -21.7578125 12.14453125 C-31.6871241 15.43277094 -40.46455788 27.56322252 -47.82421875 34.91796875 C-48.97331351 36.06384184 -50.1224797 37.20964331 -51.27171326 38.3553772 C-53.65759458 40.7353241 -56.04145511 43.11727379 -58.42407227 45.50048828 C-61.47886784 48.55538645 -64.54054629 51.60328806 -67.60392857 54.64957237 C-69.96901635 57.00356906 -72.32957304 59.36206878 -74.68885612 61.72188187 C-75.81678958 62.84863566 -76.9463441 63.97376912 -78.07754707 65.09724045 C-79.64965288 66.65958282 -81.21533719 68.22809166 -82.77954102 69.79833984 C-83.67093277 70.68830658 -84.56232452 71.57827332 -85.48072815 72.49520874 C-87.69792219 74.68127514 -87.69792219 74.68127514 -88.5078125 77.76953125 C-87.99717758 78.27794556 -87.48654266 78.78635986 -86.96043396 79.31018066 C-82.11844595 84.13202497 -77.27894513 88.95635327 -72.44213772 93.78339386 C-69.95617152 96.26416985 -67.469296 98.74401898 -64.98022461 101.22167969 C-62.11028417 104.07854748 -59.24451508 106.93956856 -56.37890625 109.80078125 C-55.49633652 110.6781897 -54.61376678 111.55559814 -53.70445251 112.45959473 C-49.29654182 116.86710924 -45.02570493 121.32830477 -40.97660828 126.0690155 C-38.71678267 128.68535542 -36.31886609 131.12842684 -33.8828125 133.58203125 C-32.53316406 134.95294922 -32.53316406 134.95294922 -31.15625 136.3515625 C-26.91540072 140.22337032 -23.30205701 142.42187658 -17.5078125 142.76953125 C-11.97809849 141.79940599 -9.05171591 140.12346973 -5.5078125 135.76953125 C-3.17718123 131.955771 -3.16572082 128.42067517 -3.78125 124.09765625 C-5.15081108 119.7091702 -8.27210727 116.90662452 -11.5078125 113.76953125 C-12.96614583 112.31119792 -14.42447917 110.85286458 -15.8828125 109.39453125 C-16.55054688 108.74742188 -17.21828125 108.1003125 -17.90625 107.43359375 C-20.05834585 105.19751367 -20.47422974 104.07177608 -20.8203125 100.95703125 C-20.42067488 96.88072757 -19.48543881 95.56485391 -16.5078125 92.76953125 C-13.56557885 92.2687917 -11.31249355 92.10233281 -8.3828125 92.20703125 C-7.19389404 92.23301392 -7.19389404 92.23301392 -5.98095703 92.25952148 C19.76304496 93.25827694 43.06575566 104.96527333 60.4921875 123.76953125 C79.01810618 145.32202395 83.96258369 170.97575749 82.4921875 198.76953125 C79.96019367 222.53633934 66.3355109 243.4896014 48.4921875 258.76953125 C29.74939615 273.59858789 7.75089725 278.85405379 -15.76358414 278.96876144 C-17.99228622 278.98067814 -20.2208054 279.00015733 -22.44943237 279.0218811 C-28.7801911 279.08310245 -35.1109219 279.13759785 -41.44189453 279.17089844 C-45.32867364 279.19188219 -49.21510237 279.22719859 -53.10168076 279.27165604 C-54.57595571 279.28576858 -56.05029244 279.29452772 -57.5246315 279.29771042 C-59.58726865 279.30263886 -61.64897837 279.3258391 -63.71142578 279.35302734 C-65.46726486 279.36515762 -65.46726486 279.36515762 -67.25857544 279.37753296 C-72.33755863 279.99027764 -75.53576958 281.61358832 -78.8203125 285.51953125 C-81.44478402 290.57406899 -82.05722761 293.96867061 -80.3828125 299.45703125 C-78.09542117 303.49808926 -75.63595346 305.70546077 -71.5078125 307.76953125 C-69.19312561 307.87724118 -66.87526497 307.91846953 -64.55810547 307.93066406 C-63.84224274 307.93562897 -63.12638 307.94059387 -62.38882446 307.94570923 C-60.00920656 307.96036291 -57.62965571 307.96714436 -55.25 307.97265625 C-53.58724975 307.97841282 -51.92449951 307.98417049 -50.26174927 307.9899292 C-46.76287528 308.00045354 -43.26402432 308.00628427 -39.76513672 308.00976562 C-35.32522007 308.01520004 -30.88561798 308.0391116 -26.44579887 308.06773758 C-23.00179227 308.0865715 -19.55785756 308.09158082 -16.11380386 308.0931015 C-14.48026976 308.09609102 -12.84673575 308.10399094 -11.21325302 308.11728668 C2.75816257 308.22272245 16.12315952 306.72546711 29.4296875 302.14453125 C30.1707373 301.89074707 30.91178711 301.63696289 31.67529297 301.37548828 C61.0218809 290.87635949 86.18178277 268.9288944 99.77514648 240.82568359 C113.96695797 210.2945911 116.54768003 178.03391736 106.4921875 145.76953125 C105.76759436 143.92600856 105.02046808 142.09103899 104.2421875 140.26953125 C102.56370138 136.27566309 101.87870449 133.15155277 102.4921875 128.76953125 C103.6171875 126.39453125 103.6171875 126.39453125 105.4921875 124.76953125 C108.80405376 123.68957486 110.72884953 123.52749726 114.0546875 124.58203125 C126.32863182 135.59710949 128.76188501 161.10248748 129.66064453 176.69140625 C131.20387715 216.57008682 118.38692753 252.99760824 91.19921875 282.38671875 C68.39547663 306.30458655 35.31593745 323.86235236 1.76000977 324.88305664 C-0.19594116 324.87520142 -0.19594116 324.87520142 -2.19140625 324.8671875 C-2.89177505 324.86577255 -3.59214386 324.8643576 -4.31373596 324.86289978 C-6.52430716 324.85735602 -8.73477254 324.84481451 -10.9453125 324.83203125 C-12.45507665 324.82700896 -13.96484241 324.82244734 -15.47460938 324.81835938 C-19.15237743 324.80740512 -22.83008462 324.79018015 -26.5078125 324.76953125 C-26.50412533 325.62706214 -26.50043816 326.48459303 -26.49663925 327.3681097 C-26.4082332 348.25092184 -26.34207609 369.13370164 -26.30056381 390.01666164 C-26.27995427 400.11558701 -26.25186439 410.21438733 -26.20605469 420.31323242 C-26.16613772 429.11722193 -26.140368 437.92112084 -26.13145852 446.72519833 C-26.12625201 451.38526155 -26.11404834 456.04506566 -26.08489227 460.7050457 C-26.05764634 465.09549973 -26.04938598 469.48558907 -26.05538177 473.87611961 C-26.05428563 475.48330419 -26.04638645 477.09050156 -26.0309906 478.69761276 C-25.87772243 495.52899764 -25.87772243 495.52899764 -30.5078125 501.76953125 C-36.40804009 507.00266772 -41.49961557 508.65127835 -49.25691223 508.52470398 C-50.19691328 508.53335836 -51.13691433 508.54201274 -52.10540026 508.55092937 C-55.23339037 508.57240144 -58.35957972 508.55128227 -61.48754883 508.5300293 C-63.73852382 508.53652676 -65.98949265 508.54559082 -68.240448 508.55702209 C-74.33731262 508.58005946 -80.43354956 508.56541172 -86.53039384 508.54255271 C-92.91201036 508.52361833 -99.29358526 508.53479735 -105.67521667 508.54145813 C-117.07131582 508.54819934 -128.46707327 508.52546777 -139.8630996 508.49051873 C-150.19586033 508.459591 -160.52829832 508.45727527 -170.86108398 508.47631836 C-184.15049718 508.50078235 -197.43963361 508.49986006 -210.72907066 508.4775486 C-215.8028025 508.46955389 -220.87638594 508.47156441 -225.9501133 508.4815731 C-231.91832067 508.49210231 -237.88597242 508.47805996 -243.85409164 508.44482994 C-246.04709423 508.436604 -248.24014757 508.43692854 -250.43314552 508.44630814 C-253.42060149 508.45768508 -256.40631444 508.43843524 -259.39363098 508.41117859 C-260.2668677 508.42165008 -261.14010441 508.43212157 -262.03980285 508.44291037 C-266.21184426 508.37170649 -267.88477261 508.32962612 -271.08135509 505.45599079 C-273.02879639 501.78835779 -272.60388075 499.71537694 -271.5078125 495.76953125 C-270.19190949 494.0826413 -270.19190949 494.0826413 -268.5078125 492.76953125 C-265.47299929 492.46882001 -262.64193322 492.35381932 -259.60517883 492.37080383 C-258.68381628 492.36415701 -257.76245372 492.35751018 -256.81317109 492.35066193 C-253.71298291 492.33194758 -250.61317782 492.3346429 -247.51293945 492.3371582 C-245.29577078 492.3281462 -243.07860712 492.31782038 -240.8614502 492.30627441 C-234.83081541 492.27861237 -228.80027492 492.26940741 -222.76958489 492.26342034 C-216.47144829 492.25406059 -210.17338279 492.22785921 -203.87528992 492.20341492 C-193.30057978 492.16465347 -182.72588126 492.13632808 -172.15112305 492.1159668 C-161.25851709 492.094965 -150.36595684 492.06766269 -139.47338867 492.03198242 C-138.79525448 492.02976891 -138.1171203 492.0275554 -137.41843659 492.02527481 C-131.51975269 492.00596603 -125.62107042 491.98617942 -119.72238827 491.96634579 C-94.31755396 491.88154483 -68.91275204 491.8281285 -43.5078125 491.76953125 C-43.1778125 436.65953125 -42.8478125 381.54953125 -42.5078125 324.76953125 C-53.0678125 324.76953125 -63.6278125 324.76953125 -74.5078125 324.76953125 C-84.51709456 320.32096145 -91.81460339 315.89399445 -96.5078125 305.76953125 C-99.48069905 297.69814426 -99.06108847 289.04142063 -95.8828125 281.08203125 C-91.78595475 272.87363166 -85.92142203 267.39313757 -77.5078125 263.76953125 C-73.79022951 262.55351454 -70.2254583 262.65593434 -66.3359375 262.671875 C-65.0871582 262.67437256 -63.83837891 262.67687012 -62.55175781 262.67944336 C-60.96975586 262.68854736 -59.38775391 262.69765137 -57.7578125 262.70703125 C-50.2090625 262.73796875 -50.2090625 262.73796875 -42.5078125 262.76953125 C-42.5078125 251.87953125 -42.5078125 240.98953125 -42.5078125 229.76953125 C-79.1378125 229.76953125 -115.7678125 229.76953125 -153.5078125 229.76953125 C-153.38914259 258.74434678 -153.38914259 258.74434678 -153.23754883 287.71899414 C-153.22399902 293.33679199 -153.22399902 293.33679199 -153.22148132 295.97093201 C-153.21688978 297.80148 -153.20637008 299.63201921 -153.19108582 301.46250916 C-153.16903613 304.24347577 -153.16609748 307.02389034 -153.16723633 309.80493164 C-153.156442 310.61352914 -153.14564768 311.42212664 -153.13452625 312.25522709 C-153.16614027 318.04585547 -154.07670835 323.01056827 -158.04296875 327.51171875 C-162.63180662 330.91520464 -164.73624441 331.89548669 -170.42285156 331.9465332 C-171.66464172 331.95936844 -172.90643188 331.97220367 -174.18585205 331.98542786 C-175.54837648 331.99359643 -176.91090542 332.00103994 -178.2734375 332.0078125 C-179.30203007 332.01392579 -179.30203007 332.01392579 -180.35140228 332.02016258 C-183.98280028 332.04102608 -187.61416049 332.055325 -191.24560547 332.06469727 C-194.98937568 332.07574622 -198.73254895 332.11012676 -202.47610855 332.14986897 C-205.36040316 332.17607005 -208.24455651 332.18439227 -211.12895966 332.18797874 C-212.5084205 332.19283789 -213.88787532 332.20443287 -215.26721954 332.22301674 C-226.15275845 332.36052876 -226.15275845 332.36052876 -231.15136719 330.18041992 C-236.00579075 325.21383966 -237.95688305 320.95919181 -238.0055275 314.12841129 C-237.98393885 312.88740996 -237.98393885 312.88740996 -237.96191406 311.62133789 C-237.9623962 310.71848525 -237.96287834 309.81563261 -237.96337509 308.8854208 C-237.96040608 305.98309885 -237.93002364 303.08182392 -237.8984375 300.1796875 C-237.89255119 298.37984715 -237.88847366 296.57999995 -237.88623047 294.78015137 C-237.86531883 288.13067309 -237.80947361 281.48134172 -237.7578125 274.83203125 C-237.6753125 259.96140625 -237.5928125 245.09078125 -237.5078125 229.76953125 C-274.1378125 229.76953125 -310.7678125 229.76953125 -348.5078125 229.76953125 C-348.1778125 315.89953125 -347.8478125 402.02953125 -347.5078125 490.76953125 C-345.04564217 492.00061642 -343.41581361 491.90060723 -340.66259766 491.91137695 C-339.65460114 491.91841141 -338.64660461 491.92544586 -337.60806274 491.93269348 C-336.51537079 491.93685776 -335.42267883 491.94102203 -334.296875 491.9453125 C-331.99738665 491.9685078 -329.69790745 491.99262501 -327.3984375 492.01757812 C-323.76198179 492.05273315 -320.12586298 492.08205686 -316.48925781 492.09545898 C-312.98721264 492.1109022 -309.48615931 492.1510886 -305.984375 492.1953125 C-304.89573151 492.19340408 -303.80708801 492.19149567 -302.68545532 492.18952942 C-301.67115448 492.20602036 -300.65685364 492.22251129 -299.61181641 492.23950195 C-298.72072174 492.24536819 -297.82962708 492.25123444 -296.91152954 492.25727844 C-293.70942133 492.93967529 -292.50475756 494.22050511 -290.5078125 496.76953125 C-290.0078125 500.26953125 -290.0078125 500.26953125 -290.5078125 503.76953125 C-292.56500521 506.43960512 -293.75941716 507.62088082 -297.09893799 508.28419495 C-298.07852478 508.29039352 -299.05811157 508.2965921 -300.06738281 508.30297852 C-301.18244202 508.31881485 -302.29750122 508.33465118 -303.4463501 508.35096741 C-304.64741394 508.34600754 -305.84847778 508.34104767 -307.0859375 508.3359375 C-308.32647888 508.34213608 -309.56702026 508.34833466 -310.84515381 508.35472107 C-314.14343523 508.36364592 -317.44097447 508.35250737 -320.73919678 508.33563232 C-322.75014288 508.33204493 -324.76016067 508.34592196 -326.77099609 508.36645508 C-330.64724561 508.40342854 -334.52204483 508.4059511 -338.3984375 508.3984375 C-339.59140442 508.41169571 -340.78437134 508.42495392 -342.01348877 508.43861389 C-349.06253368 508.36026949 -354.15280153 507.59735583 -359.5078125 502.76953125 C-363.0197245 498.26707997 -364.62981514 494.79921457 -364.64203358 489.12237072 C-364.64649142 488.16216398 -364.65094926 487.20195725 -364.65554219 486.21265334 C-364.65535783 485.1554738 -364.65517347 484.09829426 -364.65498352 483.00907898 C-364.65866021 481.8877722 -364.6623369 480.76646542 -364.666125 479.61117965 C-364.67718434 475.83412497 -364.68100947 472.05709777 -364.68481445 468.2800293 C-364.69054417 465.57999434 -364.69771095 462.87996352 -364.70472717 460.17993164 C-364.72448907 452.06392088 -364.7345568 443.94790887 -364.74345496 435.83188006 C-364.74783775 432.01074547 -364.75320453 428.18961227 -364.75844383 424.36847878 C-364.77545477 411.66811123 -364.78994976 398.96774455 -364.79719257 386.26736736 C-364.79910249 382.97162055 -364.80102282 379.67587374 -364.80297852 376.38012695 C-364.80346226 375.56097826 -364.803946 374.74182956 -364.8044444 373.89785818 C-364.8127478 360.62304711 -364.83809052 347.34832605 -364.87055919 334.0735543 C-364.90361511 320.44773901 -364.92163995 306.82196949 -364.92483681 293.19611388 C-364.92700312 285.54438399 -364.93576952 277.89278543 -364.96129799 270.24109459 C-364.98298487 263.72578843 -364.99106535 257.2106455 -364.98133121 250.69530734 C-364.97678066 247.3708772 -364.98088898 244.04705759 -364.99809265 240.72262764 C-365.01570321 237.11844323 -365.0087579 233.51511844 -364.99555969 229.91093445 C-365.01201356 228.33520339 -365.01201356 228.33520339 -365.02879983 226.72763938 C-364.97673199 220.8537481 -364.45154458 217.42155449 -360.5078125 212.76953125 C-359.71246094 211.72796875 -358.91710937 210.68640625 -358.09765625 209.61328125 C-357.2157527 208.49694764 -356.33153483 207.38243942 -355.4453125 206.26953125 C-354.46089628 205.02477218 -353.47652242 203.77997961 -352.4921875 202.53515625 C-351.74485352 201.5925293 -351.74485352 201.5925293 -350.98242188 200.63085938 C-348.7128425 197.76607905 -346.45346783 194.89332008 -344.1953125 192.01953125 C-343.74986084 191.45298828 -343.30440918 190.88644531 -342.84545898 190.30273438 C-339.05005806 185.47088934 -335.27784951 180.62117817 -331.5078125 175.76953125 C-330.32167153 174.24474736 -329.13547419 172.72000733 -327.94921875 171.1953125 C-325.74501011 168.36221077 -323.54499498 165.52593155 -321.34765625 162.6875 C-320.38038861 161.44387018 -319.41295072 160.20037275 -318.4453125 158.95703125 C-318.01669922 158.40080078 -317.58808594 157.84457031 -317.14648438 157.27148438 C-307.99259656 145.54351753 -307.99259656 145.54351753 -300.56048012 144.4947331 C-298.26934406 144.38352191 -295.99617803 144.36965476 -293.70239258 144.38858032 C-292.82761922 144.38390035 -291.95284586 144.37922038 -291.05156422 144.37439859 C-288.12666885 144.36245321 -285.20224242 144.3719041 -282.27734375 144.38134766 C-280.17784349 144.37728176 -278.07834538 144.37193978 -275.97885132 144.36541748 C-270.28058501 144.35174032 -264.58248165 144.35704426 -258.88421249 144.36655474 C-252.92125763 144.37414921 -246.95831674 144.36710631 -240.99536133 144.36239624 C-230.98158259 144.35693808 -220.96787022 144.36413192 -210.95410156 144.37841797 C-199.37630678 144.39474455 -187.79867049 144.38945609 -176.22087955 144.37293875 C-166.28103052 144.35932565 -156.34122921 144.35740338 -146.40137386 144.36525476 C-140.46446573 144.36993222 -134.5276321 144.37055406 -128.59072876 144.36064529 C-123.00927942 144.35198052 -117.42803446 144.35798878 -111.84660721 144.37532806 C-109.79795293 144.37929549 -107.74928145 144.37815449 -105.700634 144.37154007 C-102.90460111 144.36334476 -100.10922354 144.37362198 -97.31323242 144.38858032 C-96.09659267 144.37854207 -96.09659267 144.37854207 -94.85537434 144.36830103 C-88.84219577 144.43071712 -84.71527695 145.76374545 -80.15625 149.90625 C-74.82539229 155.88743571 -69.93606505 162.05916653 -65.18554688 168.50585938 C-61.54621316 173.43402719 -57.7691655 178.22164553 -53.8828125 182.95703125 C-48.71198264 189.2628468 -43.68592071 195.65395143 -38.74902344 202.14453125 C-37.40785663 203.90039401 -36.05658613 205.64812979 -34.703125 207.39453125 C-34.01126099 208.28845581 -34.01126099 208.28845581 -33.30541992 209.20043945 C-32.41867903 210.34567383 -31.5308716 211.49008344 -30.6418457 212.63354492 C-27.76973715 216.35145644 -26.38089482 218.34834401 -26.39428711 223.03564453 C-26.39436264 223.91640656 -26.39443817 224.79716858 -26.39451599 225.70462036 C-26.39967728 226.65674408 -26.40483856 227.6088678 -26.41015625 228.58984375 C-26.41227867 230.05053787 -26.41227867 230.05053787 -26.41444397 231.54074097 C-26.42005277 234.65870198 -26.43260677 237.77659185 -26.4453125 240.89453125 C-26.45032637 243.0052073 -26.45488947 245.11588447 -26.45898438 247.2265625 C-26.47002505 252.40757646 -26.48677177 257.58854877 -26.5078125 262.76953125 C2.43584714 262.0879726 26.16705733 258.29864095 47.07421875 236.59375 C62.83161716 218.188905 67.04376144 197.4818052 65.4921875 173.76953125 C63.22785587 154.55923387 51.63453182 136.70308343 36.6796875 124.89453125 C28.33717637 118.99611518 19.39426037 114.36741348 9.4921875 111.76953125 C9.9665625 112.82140625 10.4409375 113.87328125 10.9296875 114.95703125 C14.72336117 123.92226949 14.35535515 132.14617001 10.7421875 141.12890625 C6.92331487 149.19627467 1.73405703 154.21239151 -6.5078125 157.76953125 C-15.09415575 160.36033709 -23.46009259 160.44961284 -31.73901367 156.78076172 C-40.17136578 152.02320541 -46.495254 145.26073725 -53.1953125 138.39453125 C-54.39039456 137.18792838 -55.58635334 135.98219321 -56.78320312 134.77734375 C-65.97900129 125.4840185 -65.97900129 125.4840185 -69.91796875 120.82421875 C-73.20772554 116.96909077 -76.80724393 113.46383883 -80.4296875 109.92578125 C-81.37627983 108.99806412 -81.37627983 108.99806412 -82.34199524 108.05160522 C-84.97960263 105.46828391 -87.61810964 102.88632677 -90.27587891 100.32373047 C-92.23467846 98.43183307 -94.17690241 96.52413861 -96.1171875 94.61328125 C-96.71408386 94.04532837 -97.31098022 93.47737549 -97.92596436 92.89221191 C-102.55366876 88.29441973 -105.08902505 83.71645958 -105.79296875 77.08203125 C-105.71949219 76.31890625 -105.64601563 75.55578125 -105.5703125 74.76953125 C-105.52003906 74.00640625 -105.46976562 73.24328125 -105.41796875 72.45703125 C-102.17443005 62.87954359 -92.34169655 55.2756768 -85.3671875 48.29296875 C-84.07678192 46.99612385 -82.78652162 45.69913437 -81.49639893 44.40200806 C-78.80012827 41.69381209 -76.09980694 38.98973049 -73.39697266 36.28808594 C-69.95293363 32.84425016 -66.52286792 29.38685331 -63.09618759 25.92575645 C-60.43831573 23.24553398 -57.77128763 20.57456583 -55.1016922 17.90602493 C-53.83394169 16.63593187 -52.56939155 15.36263519 -51.30828094 14.08594894 C-36.92439899 -0.45891454 -20.20364042 -11.68964019 0 0 Z M-306.5078125 169.76953125 C-307.35788177 170.85474776 -308.21737277 171.93271043 -309.08984375 173 C-309.82589844 173.97582031 -310.56195313 174.95164063 -311.3203125 175.95703125 C-312.17243908 177.07998748 -313.02533099 178.20236329 -313.87890625 179.32421875 C-314.31058105 179.89237305 -314.74225586 180.46052734 -315.18701172 181.04589844 C-317.38681924 183.91662693 -319.6380144 186.74645445 -321.8828125 189.58203125 C-326.05193465 194.8667281 -330.14570866 200.20521094 -334.1953125 205.58203125 C-334.72495605 206.28239502 -335.25459961 206.98275879 -335.80029297 207.7043457 C-338.33478605 210.47605459 -338.33478605 210.47605459 -339.5078125 213.76953125 C-305.5178125 213.76953125 -271.5278125 213.76953125 -236.5078125 213.76953125 C-233.98755278 202.92523926 -233.98755278 202.92523926 -231.90234375 192.01953125 C-231.77341232 191.27292236 -231.6444809 190.52631348 -231.51164246 189.75708008 C-231.24525458 188.20832424 -230.9807058 186.65925092 -230.71801758 185.10986328 C-230.3159839 182.74405922 -229.90538321 180.37984378 -229.49414062 178.015625 C-229.23386584 176.49618088 -228.97408192 174.97665257 -228.71484375 173.45703125 C-228.59301224 172.75803711 -228.47118073 172.05904297 -228.34565735 171.33886719 C-227.74615521 167.76497835 -227.45784115 164.38705903 -227.5078125 160.76953125 C-236.62654823 160.56047243 -245.74445235 160.40082582 -254.86506653 160.3032217 C-259.10085018 160.25636136 -263.3349879 160.19287086 -267.56982422 160.09057617 C-271.66133637 159.99236857 -275.75127181 159.93888977 -279.84387207 159.91563606 C-281.40052101 159.89907879 -282.95708902 159.86674238 -284.51306152 159.81796074 C-294.92304519 159.5047464 -300.68082869 160.57906669 -306.5078125 169.76953125 Z M-210.5078125 160.76953125 C-212.15330821 166.44558936 -212.15330821 166.44558936 -213.37744141 172.14086914 C-213.51743561 172.92180435 -213.65742981 173.70273956 -213.80166626 174.50733948 C-213.94446014 175.32733932 -214.08725403 176.14733917 -214.234375 176.9921875 C-214.38691742 177.85589462 -214.53945984 178.71960175 -214.69662476 179.60948181 C-215.0161124 181.42527658 -215.333678 183.24141047 -215.64941406 185.05786133 C-216.13214112 187.82817827 -216.62430686 190.59670812 -217.1171875 193.36523438 C-217.42765597 195.13661848 -217.73757067 196.90809975 -218.046875 198.6796875 C-218.26713852 199.91272362 -218.26713852 199.91272362 -218.49185181 201.17066956 C-218.62554169 201.94845261 -218.75923157 202.72623566 -218.89697266 203.52758789 C-219.01529449 204.20374649 -219.13361633 204.87990509 -219.25552368 205.57655334 C-219.56779706 208.29093694 -219.5078125 211.03724412 -219.5078125 213.76953125 C-203.6678125 213.76953125 -187.8278125 213.76953125 -171.5078125 213.76953125 C-172.23586821 206.91601049 -172.23586821 206.91601049 -173.24804688 200.1394043 C-173.38488892 199.35216476 -173.52173096 198.56492523 -173.66271973 197.75382996 C-173.80753784 196.93787857 -173.95235596 196.12192719 -174.1015625 195.28125 C-174.25314819 194.41562943 -174.40473389 193.55000885 -174.56091309 192.65815735 C-174.8789607 190.84535756 -175.19835317 189.03279323 -175.51904297 187.22045898 C-176.00946829 184.44766966 -176.49529547 181.67410325 -176.98046875 178.90039062 C-177.29139836 177.13146324 -177.6025871 175.36258137 -177.9140625 173.59375 C-178.05888062 172.76767746 -178.20369873 171.94160492 -178.35290527 171.09049988 C-178.48974731 170.31902115 -178.62658936 169.54754242 -178.76757812 168.75268555 C-178.88669556 168.07811813 -179.00581299 167.40355072 -179.12854004 166.70854187 C-179.51867772 164.71398336 -180.01489376 162.74120622 -180.5078125 160.76953125 C-190.4078125 160.76953125 -200.3078125 160.76953125 -210.5078125 160.76953125 Z M-164.5078125 160.76953125 C-164.32313919 161.88167496 -164.13846588 162.99381866 -163.94819641 164.1396637 C-163.82936442 164.85530707 -163.71053244 165.57095045 -163.58809948 166.30827999 C-163.32839936 167.87223 -163.0686851 169.43617765 -162.8089571 171.00012302 C-162.27656532 174.20599245 -161.74424507 177.41187315 -161.21273804 180.6178894 C-160.84706598 182.82352071 -160.48031279 185.02896958 -160.11328125 187.234375 C-159.99907837 187.92470825 -159.88487549 188.6150415 -159.76721191 189.32629395 C-158.40758777 197.48539164 -156.9455356 205.62243366 -155.5078125 213.76953125 C-121.1878125 213.76953125 -86.8678125 213.76953125 -51.5078125 213.76953125 C-53.96027171 209.68209923 -56.5489921 206.03381536 -59.5078125 202.33203125 C-60.50135989 201.07817081 -61.49484789 199.82426329 -62.48828125 198.5703125 C-62.99278809 197.93561035 -63.49729492 197.3009082 -64.01708984 196.64697266 C-66.29450803 193.77875356 -68.55787299 190.89957029 -70.8203125 188.01953125 C-71.25915771 187.46177002 -71.69800293 186.90400879 -72.15014648 186.3293457 C-74.85995954 182.88150001 -77.55537166 179.42283235 -80.2421875 175.95703125 C-81.19484497 174.72871582 -81.19484497 174.72871582 -82.16674805 173.47558594 C-83.41686922 171.8626298 -84.66576944 170.24872648 -85.91333008 168.63378906 C-86.48204834 167.89999023 -87.0507666 167.16619141 -87.63671875 166.41015625 C-88.14275635 165.75563477 -88.64879395 165.10111328 -89.17016602 164.42675781 C-90.55290555 162.65370043 -90.55290555 162.65370043 -92.5078125 160.76953125 C-95.62611549 160.4753964 -95.62611549 160.4753964 -99.34423828 160.54248047 C-100.04678741 160.54218842 -100.74933655 160.54189636 -101.47317505 160.54159546 C-103.79994981 160.54299102 -106.12640604 160.55856253 -108.453125 160.57421875 C-110.06452255 160.57794808 -111.67592237 160.58079543 -113.287323 160.58279419 C-117.53214764 160.59043694 -121.7768358 160.61009086 -126.02160645 160.63220215 C-130.3516251 160.65264682 -134.68166576 160.66179295 -139.01171875 160.671875 C-147.51047936 160.69333621 -156.00912896 160.7274798 -164.5078125 160.76953125 Z M-221.5078125 229.76953125 C-221.53687595 245.03027158 -221.53687595 245.03027158 -221.55664062 260.29101562 C-221.56262924 266.51099495 -221.56973002 272.73095963 -221.58325195 278.95092773 C-221.59408026 283.96295393 -221.60008921 288.97496443 -221.60268974 293.98700142 C-221.60454409 295.90365407 -221.6081649 297.82030582 -221.61354256 299.73695183 C-221.62075225 302.41181197 -221.62180347 305.08660639 -221.62133789 307.76147461 C-221.62493317 308.56204285 -221.62852844 309.36261108 -221.63223267 310.18743896 C-221.96205071 313.77463027 -221.96205071 313.77463027 -220.5078125 316.76953125 C-218.94782202 316.86800092 -217.38340706 316.89751743 -215.8203125 316.89892578 C-214.82257813 316.90207794 -213.82484375 316.9052301 -212.796875 316.90847778 C-211.71148437 316.90645355 -210.62609375 316.90442932 -209.5078125 316.90234375 C-207.84878906 316.90377884 -207.84878906 316.90377884 -206.15625 316.90524292 C-203.81249942 316.90592492 -201.46874697 316.90406929 -199.125 316.89990234 C-195.52339462 316.89455439 -191.92191397 316.89984672 -188.3203125 316.90625 C-186.04947889 316.90558922 -183.77864536 316.90430807 -181.5078125 316.90234375 C-180.42242187 316.90436798 -179.33703125 316.90639221 -178.21875 316.90847778 C-177.22101563 316.90532562 -176.22328125 316.90217346 -175.1953125 316.89892578 C-173.87080078 316.89773239 -173.87080078 316.89773239 -172.51953125 316.89651489 C-170.51013358 316.99223799 -170.51013358 316.99223799 -169.5078125 315.76953125 C-169.41268306 313.09165152 -169.38225971 310.43964256 -169.39428711 307.76147461 C-169.39414108 306.92252151 -169.39399506 306.08356842 -169.3938446 305.2191925 C-169.394544 302.43256081 -169.40233765 299.64599509 -169.41015625 296.859375 C-169.41202033 294.93266334 -169.41344428 293.0059512 -169.41444397 291.07923889 C-169.41826991 285.99765728 -169.42810084 280.91610405 -169.43914795 275.83453369 C-169.45115465 269.74309628 -169.45576395 263.6516494 -169.46160126 257.56020355 C-169.47131256 248.29662635 -169.49046858 239.03311149 -169.5078125 229.76953125 C-186.6678125 229.76953125 -203.8278125 229.76953125 -221.5078125 229.76953125 Z " fill="#000000" transform="translate(373.5078125,4.23046875)"/>
</svg>
